<svg xmlns="http://www.w3.org/2000/svg" width="547" height="50" viewBox="0 0 547 50" version="1.1">
	<path d="M 11.395 10.250 C 7.604 15.338, 3.479 20.954, 2.228 22.731 L -0.046 25.961 3.923 32.493 C 6.768 37.177, 7.978 40.366, 8.196 43.763 L 8.500 48.500 13.750 48.802 L 19 49.105 19 42.255 C 19 35.585, 18.896 35.304, 15.009 31.509 C 8.911 25.554, 8.814 22.679, 14.393 13.305 C 18.202 6.904, 20.242 1, 18.644 1 C 18.448 1, 15.187 5.162, 11.395 10.250 M 23 3.096 C 23 4.468, 25.017 8.946, 27.483 13.046 C 29.949 17.146, 31.974 21.310, 31.983 22.300 C 32.008 24.953, 29.594 29.105, 26.089 32.437 C 23.227 35.159, 23 35.874, 23 42.187 L 23 49 27.893 49 C 33.302 49, 34 48.242, 34 42.370 C 34 40.118, 35.225 36.988, 37.500 33.433 C 39.425 30.423, 41 27.164, 41 26.189 C 41 25.215, 37.359 19.486, 32.909 13.459 C 22.908 -0.087, 23 0.008, 23 3.096 M 150 25.500 L 150 45 153.459 45 L 156.918 45 157.209 25.499 L 157.500 5.998 153.750 5.999 L 150 6 150 25.500 M 64.500 11.386 C 60.041 13.329, 58.839 15.311, 59.189 20.143 C 59.571 25.418, 62.833 27.983, 71.618 29.918 C 78.020 31.329, 81 33.298, 81 36.120 C 81 40.212, 70.608 41.608, 67 38 C 65.900 36.900, 65 35.550, 65 35 C 65 34.450, 63.425 34, 61.500 34 C 58.713 34, 58 34.392, 58 35.923 C 58 38.847, 62.628 43.722, 66.670 45.056 C 73.905 47.444, 84.585 44.401, 86.915 39.288 C 90 32.515, 85.956 26.986, 76.441 24.970 C 69.188 23.433, 66 21.595, 66 18.952 C 66 14.723, 75.758 14.038, 78.288 18.090 C 79.119 19.420, 80.623 20, 83.241 20 C 87.499 20, 87.536 19.937, 85.544 16.085 C 82.740 10.663, 71.776 8.215, 64.500 11.386 M 18.357 15.001 C 15.631 16.089, 13 19.816, 13 22.588 C 13 23.766, 13.933 25.916, 15.073 27.365 C 16.657 29.380, 18.033 30, 20.918 30 C 25.251 30, 27.670 27.900, 28.580 23.348 C 29.626 18.121, 23.358 13.004, 18.357 15.001 M 98.212 17.129 C 96.197 17.710, 94.166 19.320, 92.966 21.288 C 90.334 25.605, 90.453 26, 94.385 26 C 96.912 26, 98.195 25.352, 99.445 23.443 C 100.824 21.339, 101.774 20.941, 104.810 21.193 C 107.820 21.443, 108.562 21.936, 108.835 23.865 C 109.308 27.214, 108.124 27.993, 101.041 28.994 C 91.804 30.300, 88.262 34.738, 91.485 40.970 C 93.686 45.227, 99.040 46.669, 105 44.610 C 107.680 43.684, 109.635 43.449, 109.833 44.028 C 110.017 44.562, 111.704 45, 113.583 45 L 117 45 117 33.934 C 117 27.848, 116.514 21.960, 115.920 20.850 C 113.713 16.728, 105.550 15.012, 98.212 17.129 M 131.250 17.933 C 128.623 19.580, 128 19.686, 128 18.485 C 128 17.419, 126.871 17, 124 17 L 120 17 120 31 L 120 45 124 45 L 128 45 128 35 C 128 26.333, 128.267 24.733, 130 23 C 132.407 20.593, 133.840 20.499, 136.777 22.557 C 138.833 23.996, 139 24.899, 139 34.557 L 139 45 143.105 45 L 147.211 45 146.855 33.028 C 146.542 22.466, 146.252 20.808, 144.397 18.952 C 141.328 15.884, 135.267 15.414, 131.250 17.933 M 168.686 17.017 C 164.879 18.159, 163.344 19.573, 162.130 23.058 C 161.115 25.970, 161.142 26, 164.815 26 C 167.704 26, 168.744 25.502, 169.513 23.750 C 170.300 21.956, 171.311 21.500, 174.500 21.500 C 178.120 21.500, 178.530 21.761, 178.816 24.250 C 179.069 26.443, 178.601 27.201, 176.501 28 C 175.054 28.550, 172.570 29, 170.982 29 C 166.754 29, 163.049 31.005, 161.406 34.182 C 160.148 36.614, 160.148 37.419, 161.404 40.424 C 163.405 45.213, 168.612 46.817, 175 44.610 C 177.680 43.684, 179.635 43.449, 179.833 44.028 C 180.017 44.562, 181.704 45, 183.583 45 L 187 45 187 33.934 C 187 27.848, 186.514 21.960, 185.920 20.850 C 183.772 16.838, 175.449 14.986, 168.686 17.017 M 202.352 16.947 C 201.171 17.449, 199.903 18.349, 199.533 18.946 C 199.164 19.544, 198.436 19.769, 197.915 19.447 C 197.394 19.125, 197.226 18.443, 197.543 17.931 C 197.862 17.415, 196.310 17, 194.059 17 L 190 17 190 31 L 190 45 194 45 L 198 45 198 34.700 C 198 23.546, 198.618 22, 203.078 22 C 207.565 22, 208.500 24.267, 208.500 35.149 L 208.500 44.993 212.250 44.996 L 216 45 216 35.434 C 216 24.455, 216.883 22, 220.835 22 C 225.389 22, 226 23.503, 226 34.700 L 226 45 229.500 45 L 233 45 233 33.582 C 233 27.302, 232.720 21.435, 232.379 20.545 C 231.601 18.517, 226.843 15.999, 223.800 16.004 C 222.535 16.006, 219.987 16.930, 218.138 18.057 C 215.047 19.941, 214.633 19.978, 213.012 18.511 C 210.837 16.543, 205.236 15.721, 202.352 16.947 M 447.250 20.250 C 447.506 20.938, 449.414 26.450, 451.491 32.500 C 455.260 43.478, 456.448 45.886, 457.551 44.783 C 457.872 44.462, 459.643 39.767, 461.487 34.349 C 465.297 23.153, 464.808 22.962, 469.536 37.500 C 470.788 41.350, 472.369 44.500, 473.050 44.500 C 473.731 44.500, 476.024 39.550, 478.145 33.500 C 483.509 18.207, 483.311 19, 481.764 19 C 480.906 19, 479.125 22.925, 476.999 29.502 C 475.132 35.279, 473.283 39.666, 472.890 39.252 C 472.496 38.839, 470.863 34.251, 469.260 29.057 C 467.656 23.864, 465.833 19.444, 465.208 19.236 C 464.526 19.009, 462.783 23.064, 460.852 29.374 C 459.081 35.158, 457.295 39.682, 456.881 39.426 C 456.467 39.171, 454.696 34.470, 452.945 28.981 C 450.795 22.240, 449.278 19, 448.274 19 C 447.455 19, 446.995 19.563, 447.250 20.250 M 515 34 C 515 40.667, 515.394 45, 516 45 C 516.606 45, 517 40.667, 517 34 C 517 27.333, 516.606 23, 516 23 C 515.394 23, 515 27.333, 515 34 M 522 25.500 C 522 26.875, 521.550 28, 521 28 C 520.450 28, 520 28.675, 520 29.500 C 520 30.325, 520.450 31, 521 31 C 521.552 31, 522 33.600, 522 36.800 C 522 43.067, 523.108 45, 526.700 45 C 529.662 45, 529.703 43.239, 526.750 42.820 C 524.757 42.536, 524.466 41.844, 524.200 36.750 C 523.909 31.175, 523.978 31, 526.450 31 C 528.050 31, 529 30.441, 529 29.500 C 529 28.567, 528.056 28, 526.500 28 C 524.500 28, 524 27.500, 524 25.500 C 524 24.125, 523.550 23, 523 23 C 522.450 23, 522 24.125, 522 25.500 M 532 34 C 532 43.111, 532.258 45, 533.500 45 C 534.680 45, 535 43.609, 535 38.479 C 535 32.585, 535.229 31.853, 537.374 30.876 C 542.351 28.608, 545.957 34.024, 544.786 42.007 C 544.486 44.048, 544.768 45, 545.673 45 C 547.380 45, 547.493 35.177, 545.829 31.523 C 544.438 28.472, 540.799 27.315, 537.426 28.852 C 535.111 29.907, 535 29.798, 535 26.479 C 535 24.053, 534.546 23, 533.500 23 C 532.258 23, 532 24.889, 532 34 M 316 36.500 C 316 41.500, 316.412 45, 317 45 C 317.550 45, 318 43.650, 318 42 C 318 39.319, 318.326 39, 321.066 39 C 325.977 39, 328 37.395, 328 33.500 C 328 29.405, 325.973 28, 320.066 28 L 316 28 316 36.500 M 336 36.500 C 336 41.500, 336.412 45, 337 45 C 337.550 45, 338 43.650, 338 42 C 338 39.485, 338.395 39, 340.443 39 C 342.098 39, 343.459 39.969, 344.659 42 C 345.634 43.650, 347.009 45, 347.716 45 C 349.482 45, 349.333 44.239, 346.981 41.249 L 344.963 38.683 346.981 36.803 C 351.447 32.642, 348.120 28, 340.671 28 L 336 28 336 36.500 M 357 36.500 C 357 41.500, 357.412 45, 358 45 C 358.588 45, 359 41.500, 359 36.500 C 359 31.500, 358.588 28, 358 28 C 357.412 28, 357 31.500, 357 36.500 M 369.495 36.128 C 373.353 45.277, 373.659 45.741, 374.973 44.427 C 376.385 43.015, 382.096 28.763, 381.492 28.159 C 380.626 27.292, 379.414 29.189, 376.955 35.261 C 375.672 38.430, 374.322 40.680, 373.955 40.261 C 373.588 39.843, 372.241 36.913, 370.960 33.750 C 369.680 30.587, 368.055 28, 367.349 28 C 366.482 28, 367.176 30.631, 369.495 36.128 M 390.380 33.675 C 389 36.796, 387.213 40.621, 386.410 42.175 C 385.130 44.649, 385.130 45, 386.407 45 C 387.209 45, 388.151 44.100, 388.500 43 C 389.019 41.365, 390.013 41, 393.951 41 C 397.926 41, 398.858 41.349, 399.290 43 C 399.800 44.952, 402 45.865, 402 44.125 C 402 42.128, 394.964 28, 393.970 28 C 393.376 28, 391.761 30.554, 390.380 33.675 M 406 29 C 406 29.550, 407.350 30, 409 30 L 412 30 412 37.500 C 412 41.833, 412.422 45, 413 45 C 413.578 45, 414 41.833, 414 37.500 C 414 30.167, 414.056 30, 416.500 30 C 417.875 30, 419 29.550, 419 29 C 419 28.436, 416.167 28, 412.500 28 C 408.833 28, 406 28.436, 406 29 M 427 36.500 L 427 45 433 45 C 436.333 45, 439 44.556, 439 44 C 439 43.450, 436.720 43, 433.934 43 C 428.997 43, 428.875 42.930, 429.184 40.250 C 429.467 37.789, 429.947 37.468, 433.750 37.193 C 439.415 36.783, 439.212 35, 433.500 35 C 429.367 35, 429 34.796, 429 32.500 C 429 30.167, 429.333 30, 434 30 C 436.750 30, 439 29.550, 439 29 C 439 28.444, 436.333 28, 433 28 L 427 28 427 36.500 M 483.455 30.455 C 478.242 35.667, 481.559 45, 488.623 45 C 492.054 45, 495.912 42.682, 494.221 41.636 C 493.625 41.268, 492.856 41.425, 492.510 41.984 C 491.452 43.696, 486.412 43.113, 484.557 41.063 C 481.920 38.149, 483.477 37, 490.059 37 C 496.448 37, 496.854 36.553, 494.537 32.072 C 492.069 27.299, 487.306 26.604, 483.455 30.455 M 500.750 28.689 C 499.788 28.941, 499 29.612, 499 30.182 C 499 30.798, 500.055 30.952, 501.606 30.563 C 504.276 29.893, 509 32.103, 509 34.023 C 509 34.560, 506.985 35, 504.523 35 C 500.851 35, 499.752 35.450, 498.408 37.500 C 496.891 39.816, 496.891 40.184, 498.408 42.500 C 500.164 45.180, 503.683 45.775, 507.066 43.965 C 508.399 43.251, 509 43.251, 509 43.965 C 509 44.534, 509.450 45, 510 45 C 511.381 45, 511.262 34.366, 509.850 31.684 C 507.971 28.115, 505.748 27.383, 500.750 28.689 M 318 33.563 C 318 36.960, 318.147 37.112, 321.149 36.813 C 327.435 36.188, 327.189 30, 320.878 30 C 318.246 30, 318 30.304, 318 33.563 M 338 32.941 C 338 34.559, 338.461 36.167, 339.024 36.515 C 340.601 37.489, 345.767 36.051, 346.374 34.468 C 347.175 32.381, 344.273 30, 340.929 30 C 338.354 30, 338 30.356, 338 32.941 M 484.557 32.223 C 482.200 35.588, 482.576 36, 488 36 C 492.303 36, 493 35.726, 493 34.035 C 493 32.020, 490.308 30, 487.622 30 C 486.792 30, 485.413 31, 484.557 32.223 M 106 31.797 C 101.081 32.380, 98 34.161, 98 36.421 C 98 39.338, 99.831 41, 103.045 41 C 106.557 41, 109.224 37.926, 108.820 34.344 C 108.552 31.965, 108.092 31.548, 106 31.797 M 174.802 32.008 C 168.748 33.089, 166.130 36.730, 169.200 39.800 C 170.765 41.365, 175.187 41.337, 177.215 39.750 C 179.005 38.350, 180.560 32.421, 179.309 31.770 C 178.864 31.538, 176.836 31.646, 174.802 32.008 M 392.161 34.547 C 390.592 37.990, 390.597 38, 393.913 38 C 396.735 38, 396.791 37.906, 395.694 35 C 394.311 31.337, 393.661 31.254, 392.161 34.547 M 500.969 37.824 C 498.906 39.495, 498.755 40, 499.905 41.385 C 502.050 43.970, 506.835 43.456, 508.184 40.496 C 509.502 37.603, 509.378 37.384, 505.935 36.520 C 504.159 36.074, 502.636 36.474, 500.969 37.824" stroke="none" fill="#ffffff" fill-rule="evenodd"/>
</svg>